<?xml version="1.0" encoding="utf-8"?>
<!-- Generator: Adobe Illustrator 16.0.0, SVG Export Plug-In . SVG Version: 6.00 Build 0)  -->
<!DOCTYPE svg PUBLIC "-//W3C//DTD SVG 1.1//EN" "http://www.w3.org/Graphics/SVG/1.1/DTD/svg11.dtd">
<svg version="1.1" id="Layer_1" xmlns="http://www.w3.org/2000/svg" xmlns:xlink="http://www.w3.org/1999/xlink" x="0px" y="0px"
	 width="1000px" height="1000px" viewBox="0 0 1000 1000" style="enable-background:new 0 0 1000 1000;" xml:space="preserve">
<style type="text/css">
<![CDATA[
	.st0{fill:#161616;}
	.st1{fill:#C5E8EC;}
	.st2{fill:#C7E7EC;}
	.st3{fill:#FFFFC1;}
]]>
</style>
<rect x="-100" y="-100" class="st0" width="1200" height="1200"/>
<g>
	<g>
		<path class="st2" d="M462.9,369.9c-2.2,0-4,1.9-3.9,4.1c0,2.2,1.9,4,4.1,3.9l143.2-3.1c2.2,0,4-1.9,4-4.1c0-2.2-1.9-4-4.1-3.9
			L462.9,369.9z"/>
		<path class="st2" d="M646,375.6c-1.7-10.3-17.9-20.4-26-24.8c-2-1.1-4.5-0.3-5.6,1.7c-1,1.9-0.2,4.3,1.7,5.3
			c9.5,5.3,21,13.6,21.9,19.1c1.5,9.3,1.5,27.8,1.5,32.2c-1.7,3.1-4.4,6.5-5.9,6.9c-3.1,0.8-13.9,1.8-20.5,2.3
			c-3.6-11.2-14.1-19.4-26.5-19.4c-14,0-25.7,10.4-27.6,24l-127.4,0.6c-1.7-13.7-13.4-24.4-27.6-24.4c-14.2,0-25.9,10.6-27.6,24.4
			l-12.2-2.4c-1.5-0.3-2.8-1.4-3.3-2.8c-0.2-0.6-0.3-1.3-0.3-1.9c0-0.4,2.4-37,22.7-37.8c28.8-1.2,49.1-2.4,54.8-4.5
			c1-0.4,2-0.7,2.9-1.1c4.2-1.5,8.1-2.9,14.3-7.8c7.2-5.6,32.4-19.3,41.1-21.2c9-2,96.7-0.4,128.1,5.8c1.5,0.3,3-0.7,3.3-2.2
			l0.5-2.3c0.4-1.6-0.6-3.1-2.2-3.4c-31.7-6.2-120.4-8.2-131.4-5.8c-10.6,2.3-37.1,17.1-44.4,22.8c-5.2,4-8.2,5.1-12.1,6.5
			c-1,0.4-2,0.7-3.1,1.1c-5.5,2.1-39.4,3.5-52.1,4c-28.2,1.1-30.4,45.4-30.4,45.9c0,5.2,3.5,9.9,3.9,10.4c0.6,0.8,1.5,1.3,2.4,1.5
			l17.8,3.6c2.3,13.1,13.7,23.1,27.4,23.1c13.8,0,25.3-10.1,27.5-23.2L559,431c2,13.4,13.6,23.7,27.5,23.7
			c15.4,0,27.9-12.5,27.9-27.9c0-0.2,0-0.3,0-0.5c3.7-0.3,16.9-1.3,21.3-2.5c6-1.6,10.6-10.2,11.4-11.9l0.4-0.8l0-0.9
			C647.6,409.3,647.9,386.8,646,375.6z M403.9,446.8c-10.9,0-19.8-8.9-19.8-19.8c0-10.9,8.9-19.8,19.8-19.8s19.8,8.9,19.8,19.8
			C423.7,437.9,414.8,446.8,403.9,446.8z M586.6,446.6c-10.9,0-19.8-8.9-19.8-19.8c0-10.9,8.9-19.8,19.8-19.8s19.8,8.9,19.8,19.8
			C606.4,437.8,597.5,446.6,586.6,446.6z"/>
	</g>
</g>
<g>
	<g>
		<path class="st3" d="M290.1,530.2v29h-7.6v-65.5H302v7.4h-11.9v21.6H302v7.4H290.1z"/>
		<path class="st3" d="M325.9,559.2v-24.8c0-1.2-0.4-2.2-1.2-3c-0.8-0.8-1.9-1.2-3.1-1.2h-4.3v29h-7.6v-65.5h11.9
			c3.3,0,6.1,1.1,8.5,3.4c2.3,2.3,3.5,5,3.5,8.2v13.2c0,3-1.1,5.7-3.3,7.9c2.2,2.3,3.3,4.9,3.3,7.9v24.8H325.9z M325.9,505.4
			c0-1.2-0.4-2.2-1.2-3c-0.8-0.8-1.9-1.2-3.1-1.2h-4.3v21.6h4.3c1.2,0,2.3-0.4,3.1-1.2c0.8-0.8,1.2-1.8,1.2-3V505.4z"/>
		<path class="st3" d="M341.1,559.2v-65.5h19.5v7.4h-11.9v21.6h11.9v7.4h-11.9v21.6h11.9v7.4H341.1z"/>
		<path class="st3" d="M368.2,559.2v-65.5h19.5v7.4h-11.9v21.6h11.9v7.4h-11.9v21.6h11.9v7.4H368.2z"/>
		<path class="st3" d="M407.3,559.2h-11.9v-65.5h11.9c3.3,0,6.1,1.1,8.5,3.4c2.3,2.3,3.5,5,3.5,8.2v42.2c0,3.2-1.2,6-3.5,8.2
			C413.4,558.1,410.6,559.2,407.3,559.2z M411.6,505.4c0-1.2-0.4-2.2-1.2-3c-0.8-0.8-1.9-1.2-3.1-1.2h-4.3v50.7h4.3
			c1.2,0,2.3-0.4,3.1-1.2c0.8-0.8,1.2-1.8,1.2-3V505.4z"/>
		<path class="st3" d="M438.7,559.2c-3.3,0-6.1-1.1-8.5-3.4c-2.3-2.3-3.5-5-3.5-8.2v-42.2c0-3.2,1.2-6,3.5-8.2
			c2.3-2.3,5.1-3.4,8.5-3.4c3.3,0,6.1,1.1,8.5,3.4c2.3,2.3,3.5,5,3.5,8.2v42.2c0,3.2-1.2,6-3.5,8.2
			C444.9,558.1,442,559.2,438.7,559.2z M443,505.4c0-1.2-0.4-2.2-1.2-3c-0.8-0.8-1.9-1.2-3.1-1.2c-1.2,0-2.3,0.4-3.1,1.2
			c-0.8,0.8-1.2,1.8-1.2,3v42.2c0,1.2,0.4,2.2,1.2,3c0.8,0.8,1.9,1.2,3.1,1.2c1.2,0,2.3-0.4,3.1-1.2c0.8-0.8,1.2-1.8,1.2-3V505.4z"
			/>
		<path class="st3" d="M490.8,559.2v-34.7l-8.9,34.7h-7.2l-8.9-34.7v34.7h-7.6v-65.5h7.3l12.7,49.3l12.7-49.3h7.3v65.5H490.8z"/>
		<path class="st3" d="M562.2,559.2H555l-7.3-42.2l-7.3,42.2h-7.1L522,493.8h7.6l7.3,42.2l7.3-42.2h7.2l7.3,42.2l7.3-42.2h7.6
			L562.2,559.2z"/>
		<path class="st3" d="M597.1,559.2v-29h-8.7v29h-7.6v-65.5h7.6v29.1h8.7v-29.1h7.6v65.5H597.1z"/>
		<path class="st3" d="M612.3,559.2v-65.5h19.5v7.4h-11.9v21.6h11.9v7.4h-11.9v21.6h11.9v7.4H612.3z"/>
		<path class="st3" d="M639.4,559.2v-65.5h19.5v7.4H647v21.6h11.9v7.4H647v21.6h11.9v7.4H639.4z"/>
		<path class="st3" d="M666.5,559.2v-65.5h7.6v58.1H686v7.4H666.5z"/>
		<path class="st3" d="M705.6,559.2c-3.3,0-6.1-1.1-8.5-3.4c-2.3-2.3-3.5-5-3.5-8.2v-6.3h7.6v6.3c0,1.2,0.4,2.2,1.2,3
			c0.8,0.8,1.9,1.2,3.1,1.2c1.2,0,2.3-0.4,3.1-1.2c0.8-0.8,1.2-1.8,1.2-3v-6.3c0-2.7-1.4-5.7-4.2-9.1c-2.6-2.9-5.2-5.8-7.8-8.7
			c-2.8-3.4-4.2-6.7-4.2-9.7v-8.4c0-3.2,1.2-6,3.5-8.2c2.3-2.3,5.1-3.4,8.5-3.4c3.3,0,6.1,1.1,8.5,3.4c2.3,2.3,3.5,5,3.5,8.2v6.3
			h-7.6v-6.3c0-1.2-0.4-2.2-1.2-3c-0.8-0.8-1.9-1.2-3.1-1.2c-1.2,0-2.3,0.4-3.1,1.2c-0.8,0.8-1.2,1.8-1.2,3v6.3c0,2.7,1.4,5.7,4.2,9
			c2.6,2.9,5.2,5.8,7.8,8.7c2.8,3.5,4.2,6.8,4.2,9.8v8.4c0,3.2-1.2,6-3.5,8.2C711.7,558.1,708.9,559.2,705.6,559.2z"/>
	</g>
</g>
<g>
	<g>
		<path class="st1" d="M317.9,613.6h-5.7v-31h5.7c6.7,0,9.7,7.8,9.7,15.6C327.6,605.8,324.6,613.6,317.9,613.6z M317.9,607
			c3.1,0,4.3-4.2,4.3-8.8s-1.2-8.9-4.3-8.9H317V607H317.9z"/>
		<path class="st1" d="M347.5,600.8l5,12.7H347l-4.3-11.5v11.5h-5.6v-31h7.1c3.6,0,6.9,2.8,6.9,10
			C351,598.4,348.7,600.4,347.5,600.8z M343.6,596.4c1.3,0,1.9-2.2,1.9-4c0-2-0.5-4.2-1.9-4.2h-1v8.2H343.6z"/>
		<path class="st1" d="M361.6,613.6v-31h5.5v31H361.6z"/>
		<path class="st1" d="M385.5,601.1l3.6-18.5h5.6l-6.9,31h-4.5l-6.9-31h5.6L385.5,601.1z"/>
		<path class="st1" d="M408.3,588.1v6.6h4.3v5.6h-4.3v7.7h4.6v5.6h-9.3v-31h9.3v5.5H408.3z"/>
		<path class="st1" d="M446.5,588.5c-2.1,0-2.9,1.6-2.9,3c0,1.1,0.6,2.5,2.7,3c4.9,1.1,7.6,5.3,7.6,10.1c0,4.8-3,9.3-8.8,9.3
			c-3.5,0-5.6-1.7-7.3-3.3l2-5c1.5,1.3,2.6,2.4,4.8,2.4c2.3,0,3.5-1.7,3.5-3.5c0-1.8-1.1-3.9-3.6-4.5c-3.8-0.9-6.5-3.8-6.5-8.6
			c0-4.5,2.9-8.9,7.9-8.9c2.9,0,5,0.8,6.3,1.6l-1.6,5.5C449.7,588.9,448.4,588.5,446.5,588.5z"/>
		<path class="st1" d="M472.7,582.5l5.7,31h-4.7l-1-5h-5.3l-1,5h-4.7l5.7-31H472.7z M468.5,603h3.3l-1.7-9.2L468.5,603z"/>
		<path class="st1" d="M492.2,588.1v6.6h4.7v5.6h-4.7v13.3h-4.7v-31h9.7v5.5H492.2z"/>
		<path class="st1" d="M511.9,588.1v6.6h4.3v5.6h-4.3v7.7h4.6v5.6h-9.3v-31h9.3v5.5H511.9z"/>
		<path class="st1" d="M527.1,620h-2l2-11.2h3.4L527.1,620z"/>
		<path class="st1" d="M566.8,597c1.8,0.8,3.2,3.2,3.2,7.6c0,6-2.5,9-5.9,9h-7.3v-31h6.2c3.3,0,5.5,3.3,5.5,8.3
			C568.6,594.5,567.8,596.3,566.8,597z M562.2,594.5c1.1,0,1.8-1.1,1.8-3c0-1.8-0.7-3.2-1.8-3.2h-0.6v6.2H562.2z M563.3,607.8
			c1.3,0,2.2-1.3,2.2-3.7c0-2.4-0.9-3.8-2.3-3.8h-1.5v7.5H563.3z"/>
		<path class="st1" d="M584.3,588.1v6.6h4.3v5.6h-4.3v7.7h4.6v5.6h-9.3v-31h9.3v5.5H584.3z"/>
		<path class="st1" d="M619.7,588.1v6.6h4.7v5.6h-4.7v13.3H615v-31h9.7v5.5H619.7z"/>
		<path class="st1" d="M645.1,600.8l5,12.7h-5.6l-4.3-11.5v11.5h-5.6v-31h7.1c3.6,0,6.9,2.8,6.9,10
			C648.6,598.4,646.3,600.4,645.1,600.8z M641.2,596.4c1.3,0,1.9-2.2,1.9-4c0-2-0.5-4.2-1.9-4.2h-1v8.2H641.2z"/>
		<path class="st1" d="M663.8,588.1v6.6h4.3v5.6h-4.3v7.7h4.6v5.6H659v-31h9.3v5.5H663.8z"/>
		<path class="st1" d="M683.2,588.1v6.6h4.3v5.6h-4.3v7.7h4.6v5.6h-9.3v-31h9.3v5.5H683.2z"/>
	</g>
</g>
<g>
	<path class="st3" d="M500,162.3c7.4,0,14.8,2.8,20.4,8.4l308.9,308.9c11.2,11.2,11.2,29.6,0,40.8L520.4,829.3
		c-5.6,5.6-13,8.4-20.4,8.4s-14.8-2.8-20.4-8.4L170.7,520.4c-11.2-11.2-11.2-29.6,0-40.8l308.9-308.9
		C485.2,165.1,492.6,162.3,500,162.3 M500,136.8c-14.5,0-28.2,5.6-38.4,15.9L152.7,461.6c-10.2,10.2-15.9,23.9-15.9,38.4
		s5.6,28.2,15.9,38.4l308.9,308.9c10.2,10.2,23.9,15.9,38.4,15.9c14.5,0,28.2-5.6,38.4-15.9l308.9-308.9c21.2-21.2,21.2-55.7,0-76.9
		L538.4,152.7C528.2,142.4,514.5,136.8,500,136.8L500,136.8z"/>
</g>
</svg>
