<?xml version="1.0" standalone="no"?>
<!DOCTYPE svg PUBLIC "-//W3C//DTD SVG 20010904//EN"
 "http://www.w3.org/TR/2001/REC-SVG-20010904/DTD/svg10.dtd">
<svg version="1.0" xmlns="http://www.w3.org/2000/svg"
 width="1048.000000pt" height="1048.000000pt" viewBox="0 0 1048.000000 1048.000000"
 preserveAspectRatio="xMidYMid meet">
<metadata>
Created by potrace 1.14, written by Peter Selinger 2001-2017
</metadata>
<g transform="translate(0.000000,1048.000000) scale(0.100000,-0.100000)"
fill="#000000" stroke="none">
<path d="M4991 10360 c-85 -29 -126 -50 -185 -95 -44 -32 -493 -474 -1054
-1033 -537 -538 -1000 -997 -1027 -1022 -28 -25 -49 -48 -47 -52 1 -5 -3 -8
-8 -8 -6 0 -52 -43 -103 -96 -51 -53 -582 -588 -1182 -1188 -600 -600 -1109
-1114 -1131 -1141 -69 -83 -133 -227 -151 -341 -14 -83 -7 -263 12 -334 32
-121 85 -215 183 -323 31 -34 304 -308 607 -609 302 -300 553 -550 557 -555
32 -36 3238 -3241 3290 -3289 91 -84 199 -135 347 -164 240 -47 443 5 641 165
101 82 4464 4449 4518 4522 62 85 90 146 116 253 38 156 34 322 -11 445 -35
95 -119 241 -149 258 -8 4 -14 12 -14 17 0 10 -4324 4337 -4420 4424 -59 53
-97 78 -197 132 -105 57 -171 71 -338 72 -142 0 -147 -1 -254 -38z"/>
</g>
</svg>
